<svg width="50" height="25" viewBox="0 0 50 25" fill="none" xmlns="http://www.w3.org/2000/svg">
<path d="M2.09098 16.0559H0V16.9056H2.09098V16.0559Z" fill="#EB5648"/>
<path d="M49.8586 17.0098C49.7663 17.1678 49.634 17.2986 49.4749 17.3891C49.3159 17.4795 49.1358 17.5263 48.9529 17.5247H48.8958V15.4425H48.9707C49.153 15.4443 49.3316 15.494 49.4887 15.5868C49.6457 15.6795 49.7756 15.8119 49.8654 15.9708C49.9551 16.1296 50.0015 16.3093 49.9999 16.4918C49.9983 16.6742 49.9488 16.8531 49.8563 17.0103L49.8586 17.0098Z" fill="#F9B233"/>
<path d="M49.8586 17.0098C49.7663 17.1678 49.634 17.2987 49.4749 17.3891C49.3159 17.4795 49.1358 17.5263 48.9529 17.5248H48.8958C48.9095 17.5179 49.5276 17.2129 49.5819 16.552C49.6362 15.8911 48.8958 15.4431 48.8958 15.4431H48.9707C49.153 15.4449 49.3316 15.4947 49.4887 15.5874C49.6457 15.6801 49.7756 15.8125 49.8654 15.9714C49.9551 16.1302 50.0015 16.3099 49.9999 16.4924C49.9983 16.6748 49.9488 16.8537 49.8563 17.0109L49.8586 17.0098Z" fill="#FFC261"/>
<path d="M43.9254 3.63H31.4871V19.2596H37.7371C37.7371 19.2459 37.7371 19.2322 37.7371 19.219C37.7371 18.0505 38.201 16.9298 39.0266 16.1035C39.8523 15.2773 40.9721 14.8131 42.1398 14.8131C43.3074 14.8131 44.4273 15.2773 45.2529 16.1035C46.0786 16.9298 46.5424 18.0505 46.5424 19.219C46.5424 19.2322 46.5424 19.2459 46.5424 19.2596H47.8935C48.2195 19.2595 48.5321 19.1298 48.7626 18.8991C48.9931 18.6685 49.1227 18.3556 49.1228 18.0294V13.3717C49.1227 12.5947 48.9352 11.8291 48.5762 11.1401L45.0044 4.28517C44.9016 4.08763 44.7467 3.9221 44.5565 3.80658C44.3662 3.69105 44.1479 3.62998 43.9254 3.63Z" fill="#EB5648"/>
<path d="M44.9754 22.0558C46.5411 20.489 46.5411 17.9485 44.9754 16.3817C43.4097 14.8148 40.8712 14.8148 39.3054 16.3817C37.7397 17.9485 37.7397 20.489 39.3054 22.0558C40.8712 23.6227 43.4097 23.6227 44.9754 22.0558Z" fill="#1D3F70"/>
<path d="M42.4623 21.1683C43.5389 20.9915 44.2685 19.9747 44.0918 18.8973C43.9151 17.8199 42.8991 17.0898 41.8224 17.2666C40.7458 17.4434 40.0163 18.4602 40.193 19.5376C40.3697 20.6151 41.3857 21.3452 42.4623 21.1683Z" fill="#103663"/>
<path d="M46.4704 10.0003H38.0276V4.82019H43.7716L46.4704 10.0003Z" fill="#C3DCFC"/>
<path d="M34.8319 1.20162V19.2597H13.8633C13.8633 19.2459 13.8633 19.2328 13.8633 19.219C13.8632 18.4026 13.6365 17.6023 13.2085 16.9073C12.7804 16.2124 12.1678 15.6501 11.439 15.2832C10.7102 14.9164 9.89391 14.7594 9.08116 14.8297C8.2684 14.9001 7.49117 15.195 6.83616 15.6817C6.27266 16.1016 5.81701 16.6496 5.50679 17.2804C5.21096 17.8839 5.05759 18.5474 5.05852 19.2196C5.05852 19.2333 5.05852 19.2465 5.05852 19.2602H2.20365C1.8852 19.2602 1.57979 19.1336 1.35461 18.9083C1.12943 18.6829 1.00293 18.3773 1.00293 18.0586V1.20162C1.00293 0.88293 1.12943 0.577293 1.35461 0.351946C1.57979 0.126599 1.8852 1.36239e-07 2.20365 1.36239e-07H33.6306C33.7884 -7.5029e-05 33.9446 0.0309528 34.0903 0.0913062C34.236 0.15166 34.3685 0.240162 34.48 0.351751C34.5916 0.463339 34.6801 0.595828 34.7405 0.741652C34.8008 0.887477 34.8319 1.04377 34.8319 1.20162Z" fill="#EB5648"/>
<path d="M13.3583 20.1649C13.8767 18.0106 12.5518 15.8436 10.3991 15.3248C8.24636 14.806 6.08098 16.1318 5.56257 18.2861C5.04416 20.4405 6.36903 22.6075 8.52175 23.1263C10.6745 23.6451 12.8398 22.3192 13.3583 20.1649Z" fill="#1D3F70"/>
<path d="M11.381 19.6851C11.6403 18.6246 10.9914 17.5545 9.93168 17.295C8.87192 17.0354 7.8026 17.6848 7.54327 18.7454C7.28395 19.8059 7.93283 20.876 8.99259 21.1355C10.0524 21.3951 11.1217 20.7457 11.381 19.6851Z" fill="#103663"/>
<path d="M39.5485 10.9142H38.0276V11.6701H39.5485V10.9142Z" fill="#CE3932"/>
<path d="M36.4854 3.63H35.8907V19.2184H36.4854V3.63Z" fill="#CE3932"/>
<path d="M18.7364 6.37146H17.0972V8.80903H14.662V10.4495H17.0972V12.8865H18.7364V10.4495H21.1722V8.80903H18.7364V6.37146Z" fill="white"/>
<path d="M34.8318 2.03186H1.00171V3.63059H34.8318V2.03186Z" fill="white"/>
<path d="M1.00171 15.6816H6.8338C6.2703 16.1016 5.81464 16.6495 5.50443 17.2804H1.00171V15.6816Z" fill="white"/>
<path d="M34.8319 15.6816V17.2804H13.4156C13.1055 16.6494 12.6498 16.1014 12.0862 15.6816H34.8319Z" fill="white"/>
<path d="M40.3729 2.03186H40.3975C40.6418 2.03186 40.8761 2.12898 41.0489 2.30185C41.2216 2.47473 41.3187 2.7092 41.3187 2.95368V3.63059H39.4524V2.95368C39.4524 2.7093 39.5494 2.47491 39.722 2.30206C39.8946 2.1292 40.1287 2.03201 40.3729 2.03186Z" fill="#CE3932"/>
</svg>
