<svg width="390" height="385" viewBox="0 0 390 385" fill="none" xmlns="http://www.w3.org/2000/svg">
<mask id="mask0_116_1233" style="mask-type:luminance" maskUnits="userSpaceOnUse" x="-141" y="0" width="670" height="385">
<path d="M391.574 26.748C336.645 6.9958 253.829 -0.9688 194.235 0.0931467C133.899 1.26129 61.1562 8.80111 4.42532 27.5976C-87.6165 58.1816 -168.524 148.978 -130.35 246.783C-116.777 281.615 -87.1924 310.288 -52.1995 330.252C-17.2066 350.217 23.0882 362.111 63.9132 370.288C158.924 389.19 259.237 388.766 354.672 368.801C409.6 357.332 466.119 337.474 499.627 297.226C535.151 254.536 535.893 195.491 512.352 147.385C486.903 95.1374 433.459 41.8277 391.574 26.748Z" fill="white"/>
</mask>
<g mask="url(#mask0_116_1233)">
<path d="M-1.72506 424.66C-1.72506 408.412 -1.51297 370.5 -1.61901 367.208C-2.46733 344.376 -0.0284283 325.792 -0.0284283 325.792L39.1 324.624L59.7776 423.173C59.7776 423.173 59.7776 423.704 59.6715 424.66H-1.72506Z" fill="#313858"/>
<path d="M41.2206 424.66C32.3134 386.748 24.2544 326.217 24.2544 326.217L116.19 325.474C116.19 325.474 119.583 383.881 121.81 424.66H41.2206Z" fill="#313858"/>
<path d="M73.8807 74.5358C73.8807 74.5358 78.2283 108.943 79.0766 111.067C81.0913 115.846 93.4979 130.182 93.4979 130.182C93.4979 130.182 55.5359 150.996 44.1897 150.996C32.8436 150.996 36.767 124.341 36.767 124.341C36.767 124.341 44.826 119.138 46.4166 115.421C48.7494 109.899 52.4608 84.8367 52.4608 84.8367L73.8807 74.5358Z" fill="#FEC4AD"/>
<path d="M48.0072 115.633C52.673 114.571 57.2326 113.191 61.6863 111.385C62.5346 111.067 63.2769 110.748 64.1252 110.323C65.9278 109.261 67.7305 108.199 69.5332 107.031C70.1694 106.607 73.5626 103.952 73.7747 103.952C74.9412 102.784 76.0015 101.615 77.0619 100.447C77.168 100.341 77.274 100.235 77.38 100.129C75.8955 89.2968 73.9868 74.5358 73.9868 74.5358L52.4609 84.9428C52.4609 84.9428 48.7495 110.005 46.4167 115.527C46.3106 115.633 46.3106 115.846 46.2046 115.952C46.9469 115.846 47.6891 115.633 48.0072 115.633Z" fill="#F7A281"/>
<path d="M52.3548 331.739C36.7671 331.102 18.6344 330.146 3.5769 326.323C3.78898 279.067 5.59166 194.43 6.97017 184.341C9.09095 168.624 10.8936 147.173 10.8936 147.173L35.7067 124.235L45.9925 132.73L89.7866 119.775L111.1 136.978C95.0886 199.845 112.797 263.137 111.1 327.81C100.815 328.872 94.2402 333.545 52.3548 331.739Z" fill="#6EAFCF"/>
<path d="M32.4194 123.598C32.4194 123.598 21.1793 163.102 29.1322 204.2C31.359 215.881 30.8289 255.173 30.8289 255.173C30.8289 255.173 32.2074 342.465 29.6624 350.961C27.0114 359.35 28.2839 368.589 11.7418 368.483C-3.95194 368.377 -4.3761 359.987 -4.3761 359.987C-4.3761 359.987 0.0775409 261.651 0.819814 239.775C1.56209 217.899 -1.51304 149.191 3.25871 142.076C6.86404 136.447 32.4194 123.598 32.4194 123.598Z" fill="white"/>
<path d="M35.1765 122.748C35.1765 122.748 30.7228 134.323 30.7228 140.058C30.7228 145.792 29.1323 174.996 29.2383 195.81C29.2383 205.792 30.0866 235.952 30.0866 235.952C30.0866 235.952 13.7566 171.598 14.923 168.306C16.1955 164.801 23.8303 155.244 23.8303 155.244C23.8303 155.244 20.6491 144.2 19.6948 141.014C18.6344 137.934 22.3458 134.43 25.2088 130.394C27.5417 127.102 35.1765 122.748 35.1765 122.748Z" fill="#C0E7FA"/>
<path d="M89.6805 118.713C89.6805 118.713 70.4875 159.067 67.9425 171.067C60.7319 205.899 57.6567 233.828 57.6567 233.828C57.6567 233.828 49.4917 341.509 53.3091 355.739C57.5507 371.244 62.9587 373.686 82.5759 374.005C103.572 374.43 123.719 364.872 123.719 364.872C123.719 364.872 116.296 281.297 116.296 257.191C116.296 233.084 127.536 167.244 114.812 140.589C111.843 134.111 89.6805 118.713 89.6805 118.713Z" fill="white"/>
<path d="M91.6953 118.819C91.6953 118.819 70.5935 146.854 66.9882 155.881C63.3828 164.907 58.1869 188.801 57.0205 234.89C57.0205 234.89 64.1251 209.191 69.1089 198.571C76.2136 183.279 81.3034 175.527 80.8793 173.084C80.137 169.58 75.5773 166.182 74.3049 162.253C74.3049 162.253 82.1517 154.925 91.6953 150.89C91.6953 150.89 95.9368 134.536 96.5731 129.014C97.1032 123.598 91.6953 118.819 91.6953 118.819Z" fill="#C0E7FA"/>
<path d="M103.359 284.27H73.2444V289.155H103.359V284.27Z" fill="#C0E7FA"/>
<path d="M24.9967 284.27H2.09229V289.155H24.9967V284.27Z" fill="#C0E7FA"/>
<path d="M84.3786 114.253L46.0985 132.73C46.0985 132.73 58.7172 148.553 64.7614 148.129C74.729 147.492 91.6953 118.819 91.6953 118.819L84.3786 114.253Z" fill="#5F97B3"/>
<path d="M46.0985 132.73C46.0985 132.73 37.7214 146.217 33.5859 144.73C28.496 142.925 32.7375 123.067 32.7375 123.067L42.069 119.775L46.0985 132.73Z" fill="#5F97B3"/>
<path d="M34.9644 40.7659C29.0262 45.8632 27.6477 54.1464 28.7081 59.6685C29.8745 65.1906 33.904 77.5092 33.904 77.5092C33.904 77.5092 38.2516 58.6066 41.2207 51.9163C44.0837 45.226 48.9615 36.4119 48.9615 36.4119L34.9644 40.7659Z" fill="#313131"/>
<path d="M43.2355 39.9163C39.4181 42.0402 32.9497 46.5003 32.5255 49.8986C32.2074 53.2968 30.6168 63.2791 31.041 69.1198C31.4652 74.9605 30.1927 81.3322 31.041 88.1287C31.9954 95.0313 37.0852 107.881 41.7509 111.279C49.2797 116.801 59.8836 109.686 66.6701 105.12C74.517 99.8101 77.4861 95.1375 77.0619 80.4826C77.0619 80.4826 82.2578 53.6154 80.7733 49.4738C77.274 39.5977 56.8085 43.8455 50.8703 42.8897C45.0381 42.1464 43.2355 39.9163 43.2355 39.9163Z" fill="#FEC4AD"/>
<path d="M78.5465 48.9428C80.5612 52.1286 74.0928 56.0578 73.5626 59.0313C72.5022 64.872 74.0928 71.6685 74.0928 71.6685L76.3196 77.2968C76.3196 77.2968 75.2592 89.6154 76.2136 93.6508C77.0619 96.9428 98.9059 73.7924 93.1798 49.2614C90.6349 38.6419 80.9853 41.8278 80.9853 41.8278C79.3948 30.9959 74.4109 26.5357 53.0971 27.0667C31.7833 27.4915 28.0719 44.5888 28.0719 44.5888C31.6772 46.9251 29.5564 53.6154 40.7966 54.2525C61.3681 55.5269 64.4433 46.8189 72.5022 45.4384C74.1989 45.226 76.6378 45.757 78.5465 48.9428Z" fill="#313131"/>
<path d="M74.3048 79.2082C74.3048 79.2082 76.0014 74.4295 79.0766 71.456C81.7275 68.9074 85.651 68.8011 86.6053 72.9427C87.8778 77.9339 83.3181 81.0135 83.106 83.987C82.7879 87.279 76.8497 90.1463 74.6229 89.0843L74.3048 79.2082Z" fill="#FEC4AD"/>
<path opacity="0.52" d="M81.4095 74.2172C83.3182 73.049 84.6967 74.642 85.0148 76.3411C85.3329 78.0402 84.8027 77.0844 83.6363 75.9163C82.4699 74.7482 80.7732 77.0844 80.6672 78.7836C80.5612 81.0136 79.3947 83.6685 77.38 83.5623C75.3652 83.4561 76.5317 82.9252 77.0619 80.5889C77.6981 78.2526 76.9558 80.5889 77.9102 78.3588C78.8645 76.1287 79.8189 75.1729 81.4095 74.2172Z" fill="#965545"/>
<path d="M89.1503 237.226C91.4832 211.527 91.6953 185.828 93.4979 169.686C97.7395 133.792 104.844 130.182 104.844 130.182C104.844 130.182 120.008 135.491 125.522 171.916C127.112 182.642 129.233 206.748 126.37 240.412C124.143 266.961 119.902 270.253 113.433 273.014C104.632 276.837 87.8778 280.129 80.243 273.12C85.1208 256.341 88.0899 260.695 89.1503 237.226Z" fill="white"/>
<path d="M104.844 130.182C104.844 130.182 120.22 137.084 125.734 173.403C127.324 184.129 129.233 206.642 126.37 240.306C124.143 266.854 119.902 270.146 113.433 272.907C104.632 276.73 87.8778 280.022 80.243 273.014" stroke="#C0E7FA" stroke-width="1.8425" stroke-miterlimit="10" stroke-linecap="round" stroke-linejoin="round"/>
<path d="M8.66671 232.872C9.93918 209.084 13.0143 185.509 13.3324 170.536C14.1807 137.403 11.3177 135.173 11.3177 135.173C11.3177 135.173 -1.19491 141.438 -8.08745 164.483C-10.8445 173.722 -19.1155 202.713 -22.1906 231.492C-24.6295 254.748 -21.0242 261.12 -16.1464 264.306C-8.93576 269.084 13.7566 265.58 19.5887 264.837C17.4679 248.695 6.65197 254.536 8.66671 232.872Z" fill="white"/>
<path d="M11.3177 135.279C11.3177 135.279 -1.19491 141.545 -8.08745 164.589C-10.8445 173.828 -19.1155 202.819 -22.1906 231.598C-24.6295 254.854 -21.0242 261.226 -16.1464 264.412C-8.93576 269.191 32.1013 263.562 37.9335 262.819" stroke="#C0E7FA" stroke-width="1.8425" stroke-miterlimit="10" stroke-linecap="round" stroke-linejoin="round"/>
<path d="M9.40892 244.022C8.98477 218.005 10.2572 214.819 12.4841 189.863" stroke="#C0E7FA" stroke-width="1.8425" stroke-miterlimit="10" stroke-linecap="round" stroke-linejoin="round"/>
<path d="M99.8602 235.421C99.224 212.483 99.33 190.394 100.39 169.155" stroke="#C0E7FA" stroke-width="1.8425" stroke-miterlimit="10" stroke-linecap="round" stroke-linejoin="round"/>
<path d="M69.9572 262.713C79.2886 264.412 79.7127 243.385 79.7127 243.385C79.7127 243.385 64.6552 232.66 63.3827 241.261C62.1103 249.969 69.9572 262.713 69.9572 262.713Z" fill="#808194"/>
<path d="M63.1707 231.173C67.8364 231.492 77.1679 224.801 84.3785 230.642C91.8012 236.589 96.4669 242.854 96.4669 242.854C96.4669 242.854 81.1973 241.58 72.7142 245.615C64.3371 249.651 55.854 256.872 55.854 256.872L63.1707 231.173Z" fill="#EDBDA6"/>
<path d="M65.7157 229.155C63.2768 233.191 66.67 249.438 67.4123 253.899C67.4123 253.899 41.1146 263.138 19.2706 264.2C-7.66333 265.474 -14.2377 262.713 -18.9035 257.615C-23.5692 252.518 -13.2834 221.084 -0.558712 228.306C7.39421 232.766 20.437 235.421 33.2677 232.978C46.3105 230.323 65.7157 229.155 65.7157 229.155Z" fill="white"/>
<path d="M33.2677 232.766C46.3105 230.323 65.7156 229.049 65.7156 229.049C63.2767 233.084 72.078 259.421 72.9263 263.881" stroke="#C0E7FA" stroke-width="1.8425" stroke-miterlimit="10" stroke-linecap="round" stroke-linejoin="round"/>
<path d="M36.9791 227.35C32.6315 226.5 23.088 218.43 15.4532 222.146C7.92443 225.863 2.72852 230.43 2.72852 230.43C2.72852 230.43 19.3766 234.465 25.951 240.306C32.7375 246.359 38.9938 255.598 38.9938 255.598L36.9791 227.35Z" fill="#EDBDA6"/>
<path d="M36.5549 227.35C30.7228 229.368 26.5872 235.315 25.5269 256.766C25.5269 256.766 48.0071 269.403 64.125 275.031C90.6348 282.784 106.01 276.624 113.009 273.014C120.114 269.297 122.446 234.04 107.601 235.315C102.405 235.739 80.455 243.067 66.2458 237.545C53.5211 232.447 36.5549 227.35 36.5549 227.35Z" fill="white"/>
<path d="M107.601 233.509C104.102 230.748 100.709 230.217 96.9972 228.837C93.2859 227.562 75.7894 227.031 73.8807 229.261C73.8807 229.261 86.6054 237.651 88.9383 241.261C90.3168 243.598 91.6953 246.784 93.1798 247.633C94.7704 248.589 96.0429 248.058 96.467 246.784C96.5731 246.359 96.467 245.615 96.361 244.872C97.2093 245.297 98.1637 245.934 99.118 246.784C101.557 249.014 103.678 249.332 103.678 247.952C103.784 246.571 101.345 242.961 101.345 242.961C101.345 242.961 103.466 244.766 104.844 246.571C106.223 248.377 108.874 249.014 108.768 246.784C108.662 244.553 106.329 240.943 104.314 238.5C103.147 237.12 101.875 236.27 101.133 235.739C102.087 236.27 103.572 237.014 104.632 237.438C106.435 238.182 110.994 241.368 111.949 239.35C112.903 237.332 111.1 236.27 107.601 233.509Z" fill="#EDBDA6"/>
<path d="M20.8612 237.545C10.4694 231.491 -1.30092 227.987 -12.6471 227.35" stroke="#C0E7FA" stroke-width="1.8425" stroke-miterlimit="10" stroke-linecap="round" stroke-linejoin="round"/>
<path d="M109.404 275.669C93.71 282.784 72.1841 278.323 59.3533 273.226C50.7642 269.828 43.0233 265.261 35.1764 261.438C30.2987 259.102 28.7081 258.359 25.6329 256.129C25.6329 256.129 25.739 237.969 31.9953 230.536" stroke="#C0E7FA" stroke-width="1.8425" stroke-miterlimit="10" stroke-linecap="round" stroke-linejoin="round"/>
<path d="M34.3281 225.757C42.3871 228.199 66.564 242.748 83 240.73" stroke="#C0E7FA" stroke-width="1.8425" stroke-miterlimit="10" stroke-linecap="round" stroke-linejoin="round"/>
</g>
<mask id="mask1_116_1233" style="mask-type:luminance" maskUnits="userSpaceOnUse" x="-141" y="0" width="670" height="385">
<path d="M391.574 26.748C336.645 6.9958 253.829 -0.9688 194.235 0.0931467C133.899 1.26129 61.1562 8.80111 4.42532 27.5976C-87.6165 58.1816 -168.524 148.978 -130.35 246.783C-116.777 281.615 -87.1924 310.288 -52.1995 330.252C-17.2066 350.217 23.0882 362.111 63.9132 370.288C158.924 389.19 259.237 388.766 354.672 368.801C409.6 357.332 466.119 337.474 499.627 297.226C535.151 254.536 535.893 195.491 512.352 147.385C486.903 95.1374 433.459 41.8277 391.574 26.748Z" fill="white"/>
</mask>
<g mask="url(#mask1_116_1233)">
<path d="M376.198 80.2701C375.35 93.6506 368.987 114.571 366.124 117.12C366.124 117.12 362.201 119.881 348.098 118.394C333.358 116.801 330.601 110.96 330.601 110.96C330.601 110.96 314.483 87.0665 319.573 66.3586C324.663 45.6506 327.632 38.217 338.66 34.9249C349.688 31.5267 362.519 39.1727 362.519 39.1727C362.519 39.1727 376.94 68.2701 376.198 80.2701Z" fill="#20000C"/>
<path d="M315.013 140.801L314.483 120.73L327.738 113.615C327.738 113.615 330.813 112.235 331.874 111.173C336.964 105.757 336.964 83.7745 336.964 83.7745L355.732 83.2435C355.732 83.2435 355.838 103.845 361.883 110.96C363.367 112.659 370.578 117.438 370.684 116.695L377.789 126.252L375.986 141.332C355.838 140.27 335.479 140.27 315.013 140.801Z" fill="#EDBDA6"/>
<path d="M345.553 107.987C344.174 108.305 342.902 108.518 341.523 108.73H341.417C338.978 108.943 336.539 109.155 334.1 109.261C333.782 109.261 333.464 109.261 333.146 109.261C336.964 101.934 336.963 83.7745 336.963 83.7745L355.732 83.2435C355.732 83.2435 355.732 95.6683 358.701 104.589C354.46 105.969 350.006 107.137 345.553 107.987Z" fill="#F7A281"/>
<path d="M323.391 123.704L327.208 113.403L350.536 123.916L364.958 113.403L369.305 131.987L379.485 262.182L327.738 264.518L323.391 123.704Z" fill="#6EAFCF"/>
<path d="M299.426 193.792C301.122 179.031 308.651 157.686 308.651 157.686L306.636 123.067C306.636 123.067 299.108 128.058 294.23 135.279C289.034 142.819 274.082 191.137 271.962 207.067C269.841 222.996 273.658 222.146 279.172 221.297C280.657 221.084 285.747 225.969 292.427 225.438C294.548 214.819 296.457 204.199 299.426 193.792Z" fill="white"/>
<path d="M314.165 240.199C339.402 244.553 365.064 246.465 390.831 246.146C392.21 252.306 394.013 259.102 396.133 266.536C408.116 307.845 391.786 396.518 391.786 396.518C379.379 400.978 366.23 404.164 345.871 402.89C343.856 402.783 341.735 402.571 339.509 402.359C328.693 401.297 321.164 400.978 307.485 396.093C307.485 396.093 295.82 328.66 304.41 279.491C307.167 264.199 311.302 252.093 314.165 240.199Z" fill="#313858"/>
<path d="M361.459 380.801C361.459 380.801 358.595 329.297 357.747 312.093C353.824 239.244 357.641 210.89 357.535 197.509C357.535 188.164 361.352 170.854 361.352 170.854L367.185 112.447L386.802 119.987C388.286 124.553 397.194 166.5 395.921 174.783C395.073 180.624 396.239 228.943 402.814 266.323C407.055 290.642 402.92 351.81 399.633 378.996C387.332 379.845 378.001 383.137 361.459 380.801Z" fill="white"/>
<path d="M301.334 375.067C299.744 354.571 294.124 302.323 298.153 279.385C304.198 244.766 310.136 173.721 308.015 166.713C305.364 157.58 303.243 150.677 303.243 150.677C303.243 150.677 305.152 127.633 306.636 123.173L325.617 113.509L331.45 112.235L358.808 195.385L358.914 200.589C358.914 200.589 360.822 354.677 353.824 380.907C353.082 384.73 314.483 384.199 301.334 375.067Z" fill="white"/>
<path d="M334.737 271.421C334.737 271.421 317.134 291.916 305.894 287.668L305.152 283.421C305.152 283.421 312.893 282.783 319.891 277.155C326.89 271.421 329.011 267.067 329.011 267.067L334.737 271.421Z" fill="#C0E7FA"/>
<path d="M326.572 112.766L320.633 116.164L324.027 140.376L331.874 138.252V152.589C346.931 160.553 357.747 192.093 357.747 192.093C357.747 192.093 350.218 159.81 345.447 148.66C332.934 119.35 326.572 112.766 326.572 112.766Z" fill="#C0E7FA"/>
<path d="M344.81 213.545L345.341 217.58L259.555 172.022L265.811 164.27L309.924 140.589L344.81 213.545Z" fill="#5F97B3"/>
<path d="M345.341 217.58L295.714 244.129L259.555 172.022L310.454 144.624L345.341 217.58Z" fill="#6EAFCF"/>
<path d="M305.152 195.704C308.757 200.27 313.847 198.465 313.847 198.465C313.847 198.465 312.999 186.465 308.651 189.757C304.197 193.155 305.152 195.704 305.152 195.704Z" fill="#5F97B3"/>
<path d="M302.925 180.305C304.94 176.907 302.925 172.129 308.015 165.651C313.105 159.067 315.013 152.058 316.922 154.182C318.831 156.412 315.013 165.651 315.013 165.651C315.013 165.651 319.149 156.73 321.694 158.111C324.239 159.491 323.603 164.164 323.603 164.164C323.603 164.164 326.147 161.721 327.738 165.651C329.329 169.58 327.738 171.916 327.738 171.916C327.738 171.916 331.237 170.854 331.555 173.934C331.874 177.013 329.965 177.651 329.965 177.651C329.965 177.651 332.828 181.686 329.329 183.067C325.829 184.447 317.876 186.783 315.65 188.164C313.423 189.544 305.894 198.146 305.894 198.146L299.426 186.465C299.426 186.359 301.122 183.279 302.925 180.305Z" fill="#EDBDA6"/>
<path d="M301.334 182.748C304.304 193.792 308.545 198.677 313.741 198.571C313.741 198.571 313.741 202.182 301.334 216.093C291.791 226.713 283.202 232.022 278.43 232.022C273.658 232.022 270.583 218.429 272.28 209.509C273.976 200.695 280.657 201.438 287.125 195.279C293.063 189.757 301.334 182.748 301.334 182.748Z" fill="white"/>
<path d="M276.627 202.288C279.49 200.058 283.414 198.89 287.231 195.279C293.063 189.757 301.44 182.748 301.44 182.748C304.41 193.792 308.651 198.677 313.847 198.571C313.847 198.571 313.847 202.182 301.44 216.093C291.897 226.713 283.308 232.022 278.536 232.022C275.673 232.022 273.34 227.031 272.386 221.084" stroke="#C0E7FA" stroke-width="1.8425" stroke-miterlimit="10" stroke-linecap="round" stroke-linejoin="round"/>
<path d="M353.506 135.916C353.506 136.872 352.763 137.721 351.703 137.721C350.749 137.721 349.9 136.978 349.9 135.916C349.9 134.96 350.643 134.111 351.703 134.111C352.657 134.217 353.506 134.96 353.506 135.916Z" fill="white"/>
<path d="M355.944 155.137C355.944 156.093 355.202 156.943 354.142 156.943C353.187 156.943 352.339 156.199 352.339 155.137C352.339 154.182 353.081 153.332 354.142 153.332C355.096 153.438 355.944 154.182 355.944 155.137Z" fill="white"/>
<path d="M325.617 76.8719C326.041 80.9073 326.678 83.456 327.314 85.4737C327.95 87.4914 328.692 88.8719 329.435 90.571C330.813 93.9692 338.554 101.828 343.962 104.483C345.022 105.013 347.673 105.226 349.794 104.695C356.793 102.783 364.215 93.1197 366.548 88.0223C368.245 84.1993 369.305 77.2967 369.623 70.8188C369.942 64.3409 370.472 55.7392 370.154 50.748C369.411 37.2613 359.656 34.2878 349.37 35.7746C337.6 37.3675 325.193 44.8011 325.193 48.8365C325.087 57.7569 324.557 67.2082 325.617 76.8719Z" fill="#EDBDA6"/>
<path d="M315.65 116.907C315.65 116.907 323.072 114.996 326.996 112.766C328.48 111.916 329.965 111.173 331.555 110.536C327.738 103.739 323.709 91.2082 326.147 76.9781C329.753 55.8453 340.145 60.3055 352.551 57.1197C358.171 55.7391 362.943 44.1639 363.367 43.5268C366.973 37.7922 361.352 31.5268 361.565 31.5268C357.641 28.7657 354.778 28.3409 350.855 27.7038C335.479 25.2613 323.815 36.3055 319.997 47.0312C315.119 60.7303 318.195 78.4648 318.725 90.8896C319.255 107.881 315.438 117.013 315.65 116.907Z" fill="#3D2716"/>
<path d="M360.292 44.5887C360.504 45.3321 360.822 46.2878 360.716 47.456C360.398 56.1639 368.563 63.1728 368.775 63.9161C371.638 72.8365 365.7 98.3232 362.307 110.642C367.397 112.766 372.274 115.421 378.001 116.695C376.198 106.075 376.092 98.1108 376.94 90.04C380.546 59.2436 381.076 54.4648 376.304 43.9515C373.123 37.0489 365.7 31.4206 361.989 31.5267C361.777 31.5267 361.565 31.5267 361.458 31.6329C361.352 31.6329 361.14 31.6329 361.034 31.7391C357.535 32.8011 359.338 40.5533 360.292 44.5887Z" fill="#3D2716"/>
<path d="M362.201 109.898L371.426 113.934L376.516 135.916L370.26 134.854L374.501 150.89C366.018 160.66 357.853 192.306 357.853 192.306C357.853 192.306 360.61 165.438 362.307 148.129C365.594 115.845 362.201 109.898 362.201 109.898Z" fill="#C0E7FA"/>
<path d="M357.747 192.624C358.489 223.633 357.853 319.421 358.489 344.695" stroke="#C0E7FA" stroke-width="1.8425" stroke-miterlimit="10" stroke-linecap="round" stroke-linejoin="round"/>
<path d="M350.536 123.916C350.536 123.916 359.974 116.164 361.14 107.881L365.7 111.916C365.7 111.916 369.411 132.624 364.109 134.748C356.793 137.721 350.536 123.916 350.536 123.916Z" fill="#5F97B3"/>
<path d="M350.536 123.916C350.536 123.916 337.176 118.925 331.768 107.881L327.208 111.916C327.208 111.916 332.192 136.022 338.978 136.447C348.522 136.872 350.536 123.916 350.536 123.916Z" fill="#5F97B3"/>
<path d="M384.999 279.173C386.802 280.128 388.604 280.766 390.513 281.403C391.574 279.81 392.422 278.111 392.528 276.624C392.634 273.438 400.057 258.04 400.057 258.04L388.074 253.049C386.484 255.173 381.288 265.367 378.955 267.491C377.364 268.978 376.622 271.739 376.304 273.332C379.167 275.35 381.924 277.58 384.999 279.173Z" fill="#EDBDA6"/>
<path d="M422.431 194.429C417.235 176.058 405.253 136.235 402.39 131.137C397.512 122.642 386.802 119.987 386.802 119.987L384.469 160.341C384.469 160.341 394.225 193.898 401.223 207.279C401.223 207.279 398.466 221.615 394.331 231.598C389.665 242.854 381.5 263.987 381.5 263.987C384.151 264.73 393.694 272.589 395.073 274.606C395.073 274.606 408.858 253.792 415.857 242.854C426.46 226.182 427.203 211.102 422.431 194.429Z" fill="white"/>
<path d="M384.469 160.341C384.469 160.341 394.225 193.898 401.223 207.279C401.223 207.279 398.466 221.615 394.331 231.598C389.665 242.854 381.5 263.987 381.5 263.987C384.151 264.73 393.694 272.589 395.073 274.606C395.073 274.606 408.858 253.792 415.857 242.854" stroke="#C0E7FA" stroke-width="1.8425" stroke-miterlimit="10" stroke-linecap="round" stroke-linejoin="round"/>
<path d="M371.638 271.421C371.638 271.421 389.241 291.916 400.481 287.668L401.223 283.421C401.223 283.421 393.482 282.783 386.484 277.155C379.485 271.421 377.364 267.067 377.364 267.067L371.638 271.421Z" fill="#C0E7FA"/>
</g>
<mask id="mask2_116_1233" style="mask-type:luminance" maskUnits="userSpaceOnUse" x="-141" y="0" width="670" height="385">
<path d="M391.574 26.748C336.645 6.9958 253.829 -0.9688 194.235 0.0931467C133.899 1.26129 61.1562 8.80111 4.42532 27.5976C-87.6165 58.1816 -168.524 148.978 -130.35 246.783C-116.777 281.615 -87.1924 310.288 -52.1995 330.252C-17.2066 350.217 23.0882 362.111 63.9132 370.288C158.924 389.191 259.237 388.766 354.672 368.801C409.6 357.332 466.119 337.474 499.627 297.226C535.151 254.536 535.893 195.491 512.352 147.385C486.903 95.1374 433.459 41.8277 391.574 26.748Z" fill="white"/>
</mask>
<g mask="url(#mask2_116_1233)">
<path d="M176.633 106.394C177.587 88.872 211.519 88.872 225.729 94.1817C239.832 99.3852 238.029 113.403 238.029 113.403" stroke="#313858" stroke-width="2.3686" stroke-miterlimit="10"/>
<path d="M252.344 111.067C249.481 123.81 246.618 135.704 243.755 146.642H178.647C176.102 134.748 173.239 122.005 169.952 108.093C176.632 104.801 185.434 103.633 188.403 97.7923C189.463 95.5622 189.781 87.7038 189.887 83.5622C189.993 76.0224 189.357 71.0312 189.357 71.0312H225.198C225.198 71.0312 224.35 81.8631 224.88 90.2525C225.092 94.8189 225.835 98.6419 227.213 99.9162C231.561 103.952 243.967 107.031 252.344 111.067Z" fill="#EDBDA6"/>
<path d="M267.72 431.987C268.144 384.943 260.297 340.978 260.403 334.394C261.252 304.978 259.767 274.925 259.767 274.925L208.232 256.341L202.506 371.987C202.506 371.987 204.627 399.067 207.066 431.881H267.72V431.987Z" fill="#313858"/>
<path d="M143.124 431.987H208.126C209.505 421.049 210.353 413.934 210.353 413.934L202.506 256.447L153.41 280.129C153.41 280.022 142.594 384.943 143.124 431.987Z" fill="#313858"/>
<path d="M146.411 316.129C188.191 315.385 219.366 321.863 260.509 316.66C259.131 278.111 259.131 222.04 262.418 196.553C267.19 160.235 270.053 131.137 270.053 131.137L231.137 108.518L222.017 113.403L206.642 115.527L188.191 114.783L177.481 111.279L149.168 131.031C149.168 131.031 142.7 160.235 147.472 196.447C150.653 221.721 148.214 278.642 146.411 316.129Z" fill="#6EAFCF"/>
<path d="M188.509 97.7923C188.297 98.2171 188.085 98.6419 187.767 98.9604C199.325 99.81 216.821 97.5799 224.986 91.4206C224.986 90.9958 224.88 90.5711 224.88 90.1463C224.35 81.7569 225.198 70.925 225.198 70.925H189.357C189.357 70.925 189.993 75.9162 189.887 83.456C189.887 87.7038 189.569 95.5622 188.509 97.7923Z" fill="#F7A281"/>
<path d="M137.08 156.837C140.685 193.474 145.563 217.686 144.927 251.35C144.503 273.757 139.625 374.429 139.625 374.429C139.625 374.429 170.27 374.005 193.917 363.704C209.823 356.801 207.702 308.164 206.854 254.748C206.217 214.819 177.163 174.04 174.724 147.173C173.663 135.916 177.693 104.164 177.693 104.164L151.395 117.332L137.08 156.837Z" fill="white"/>
<path d="M271.219 147.704C270.159 181.368 271.007 197.191 270.371 203.456C268.038 225.332 265.917 237.544 266.129 256.447C266.341 296.27 274.931 372.624 274.931 372.624C274.931 372.624 230.818 376.341 215.125 362.854C197.522 347.668 203.885 256.022 206.854 239.35C213.004 204.093 227.213 194.429 232.303 159.704C236.757 129.226 233.469 102.359 233.469 102.359L265.811 116.376L271.219 147.704Z" fill="white"/>
<path d="M178.329 105.332L184.161 100.766C184.161 100.766 187.661 104.376 190.099 106.075C201.127 113.934 207.278 114.677 207.278 114.677C207.278 114.677 195.932 123.704 190.736 123.067C180.98 121.792 178.329 105.332 178.329 105.332Z" fill="#5F97B3"/>
<path d="M233.469 104.27L229.758 99.9161C229.758 99.9161 224.986 104.801 222.653 106.5C211.837 114.252 205.793 114.996 205.793 114.996C205.793 114.996 216.927 123.916 222.017 123.173C231.561 121.792 233.469 104.27 233.469 104.27Z" fill="#5F97B3"/>
<path d="M220.957 268.872C220.957 270.89 219.26 272.589 217.245 272.589C215.231 272.589 213.534 270.89 213.534 268.872C213.534 266.854 215.231 265.155 217.245 265.155C219.26 265.155 220.957 266.854 220.957 268.872Z" fill="#C0E7FA"/>
<path d="M217.776 311.562C219.825 311.562 221.487 309.898 221.487 307.845C221.487 305.793 219.825 304.129 217.776 304.129C215.726 304.129 214.064 305.793 214.064 307.845C214.064 309.898 215.726 311.562 217.776 311.562Z" fill="#C0E7FA"/>
<path d="M185.964 100.66C185.964 100.66 182.677 115.314 187.767 140.164C191.054 155.881 192.22 166.288 195.507 178.606C204.203 211.208 204.521 235.952 204.521 235.952L168.149 138.89L174.406 131.137L161.893 125.084C161.893 125.084 171.861 107.35 176.739 103.845C181.616 100.553 185.964 100.66 185.964 100.66Z" fill="#C0E7FA"/>
<path d="M229.758 99.9161C229.758 99.9161 232.091 114.89 227.319 140.907C222.547 167.031 216.715 191.137 214.064 200.164C206.96 225.013 206.536 238.075 206.536 238.075C206.536 238.075 240.998 146.111 247.785 134.429L240.892 129.226L248.739 123.173C248.739 123.173 241.316 106.819 236.439 103.421C231.667 100.022 229.758 99.9161 229.758 99.9161Z" fill="#C0E7FA"/>
<path d="M252.132 223.421C253.617 199.314 252.768 174.252 254.253 158.005C257.646 120.093 265.811 116.376 265.811 116.376C265.811 116.376 279.384 122.642 285.959 160.235C287.761 170.748 293.593 193.368 290.942 224.164C288.928 247.421 284.792 250.5 278.324 253.367C269.523 257.297 252.556 261.438 244.391 256.022C248.739 240.943 251.92 244.553 252.132 223.421Z" fill="white"/>
<path d="M265.811 116.27C265.811 116.27 279.384 122.536 285.959 160.129C287.761 170.642 293.593 193.261 290.942 224.058C288.928 247.314 284.792 250.394 278.324 253.261C269.523 257.19 252.556 261.332 244.391 255.916" stroke="#C0E7FA" stroke-width="1.8425" stroke-miterlimit="10" stroke-linecap="round" stroke-linejoin="round"/>
<path d="M161.045 223.421C159.56 199.314 160.409 174.252 158.924 158.005C155.531 120.093 151.289 117.438 151.289 117.438C151.289 117.438 135.277 124.659 129.763 151.527C127.642 162.04 121.492 194.005 122.235 224.164C122.871 247.527 128.385 253.261 134.959 255.916C144.397 259.845 171.543 255.916 178.223 254.748C173.876 239.668 161.257 244.553 161.045 223.421Z" fill="white"/>
<path d="M151.289 117.332C151.289 117.332 135.277 124.553 129.763 151.421C127.642 161.934 121.492 193.899 122.235 224.058C122.871 247.421 128.385 253.155 134.959 255.81C144.397 259.739 171.543 255.81 178.223 254.642" stroke="#C0E7FA" stroke-width="1.8425" stroke-miterlimit="10" stroke-linecap="round" stroke-linejoin="round"/>
<path d="M163.06 234.89C159.348 209.509 160.621 206.323 160.09 180.624" stroke="#C0E7FA" stroke-width="1.8425" stroke-miterlimit="10" stroke-linecap="round" stroke-linejoin="round"/>
<path d="M263.478 221.084C262.1 199.845 261.57 178.5 261.994 157.261" stroke="#C0E7FA" stroke-width="1.8425" stroke-miterlimit="10" stroke-linecap="round" stroke-linejoin="round"/>
<path d="M232.939 247.739C242.907 248.589 242.377 229.686 242.377 229.686C242.377 229.686 225.411 220.766 224.562 228.73C223.714 236.695 232.939 247.739 232.939 247.739Z" fill="#808194"/>
<path d="M223.608 219.385C228.804 219.385 238.665 212.695 246.83 217.686C254.995 222.677 260.085 228.093 260.085 228.093C260.085 228.093 243.755 227.881 234.848 232.022C225.941 236.27 217.139 243.385 217.139 243.385L223.608 219.385Z" fill="#EDBDA6"/>
<path d="M226.365 217.261C223.926 221.191 235.06 244.66 236.12 248.483C236.12 248.483 210.777 253.261 186.282 254.323C157.864 255.598 137.186 254.323 130.718 249.863C124.143 245.403 132.096 213.757 148.956 220.235C159.242 224.164 175.042 225.863 189.781 222.677C204.627 219.491 226.365 217.261 226.365 217.261Z" fill="white"/>
<path d="M189.887 222.571C204.627 219.491 226.365 217.155 226.365 217.155C223.926 221.084 235.06 244.553 236.12 248.376" stroke="#C0E7FA" stroke-width="1.8425" stroke-miterlimit="10" stroke-linecap="round" stroke-linejoin="round"/>
<path d="M193.599 217.261C188.509 216.73 176.314 209.297 167.725 213.332C159.03 217.368 153.304 222.146 153.304 222.146C153.304 222.146 173.663 225.014 182.041 230.217C190.418 235.421 198.371 243.491 198.371 243.491L193.599 217.261Z" fill="#EDBDA6"/>
<path d="M193.175 217.155C186.6 219.385 182.253 225.332 183.313 245.615C183.313 245.615 203.142 253.049 227.425 256.872C255.526 261.332 270.901 256.872 277.9 253.261C284.898 249.545 286.807 218.536 271.644 220.553C266.236 221.297 243.331 229.261 227.531 225.014C212.898 221.084 193.175 217.155 193.175 217.155Z" fill="white"/>
<path d="M233.575 216.837C238.771 215.35 247.679 212.058 251.39 210.04C255.101 208.022 257.964 205.899 262.524 204.837C267.19 203.881 269.311 203.244 270.371 205.155C271.325 207.067 263.797 208.447 262.1 208.872C260.297 209.297 257.54 212.164 257.54 212.164C257.54 212.164 263.478 211.208 266.872 211.102C270.159 210.996 272.492 210.465 274.294 211.633C276.097 212.801 273.764 214.288 271.431 214.394C268.992 214.394 266.235 215.775 266.235 215.775C266.235 215.775 270.477 216.093 271.537 216.837C272.598 217.686 271.113 218.854 267.72 219.385C264.221 219.916 262.1 220.553 262.1 220.553C262.1 220.553 260.933 223.208 256.374 222.89C251.602 222.677 233.575 216.837 233.575 216.837Z" fill="#EDBDA6"/>
<path d="M263.797 219.279C257.01 220.447 251.284 221.297 246.512 222.04C246.512 222.252 246.512 222.359 246.618 222.571C246.618 223.421 246.618 224.164 246.618 225.014C250.542 224.907 255.101 224.695 257.646 224.058C261.252 223.208 262.524 222.89 263.797 222.359C265.917 221.403 267.402 218.642 263.797 219.279Z" fill="#EDBDA6"/>
<path d="M178.117 228.093C164.756 223.421 150.017 221.403 135.807 221.934" stroke="#C0E7FA" stroke-width="1.8425" stroke-miterlimit="10" stroke-linecap="round" stroke-linejoin="round"/>
<path d="M141.003 257.191C164.756 258.252 187.661 254.323 209.186 252.73" stroke="#C0E7FA" stroke-width="1.8425" stroke-miterlimit="10" stroke-linecap="round" stroke-linejoin="round"/>
<path d="M278.642 253.155C263.372 260.801 241.104 259.739 227.107 257.084C217.564 255.279 208.656 252.199 199.431 249.863C193.599 248.376 189.569 247.421 183.525 246.359C183.525 246.359 180.768 229.686 186.812 222.04" stroke="#C0E7FA" stroke-width="1.8425" stroke-miterlimit="10" stroke-linecap="round" stroke-linejoin="round"/>
<path d="M193.599 217.261C203.142 218.748 231.773 229.58 249.269 226.075" stroke="#C0E7FA" stroke-width="1.8425" stroke-miterlimit="10" stroke-linecap="round" stroke-linejoin="round"/>
<path d="M228.062 59.2436C228.062 59.2436 227.637 49.7922 235.59 50.0046C240.68 50.1108 240.998 54.7834 237.075 60.7303C235.378 63.279 235.272 68.9073 233.151 70.8188C230.606 73.0489 228.592 69.6506 227.743 68.0577C226.471 65.509 228.062 59.2436 228.062 59.2436Z" fill="#EDBDA6"/>
<path d="M232.621 54.8896C235.378 53.2967 238.559 53.6153 236.651 56.8012C234.742 59.8808 233.575 60.8365 233.681 64.2348C233.788 67.4206 231.031 67.5268 231.031 67.5268L232.621 54.8896Z" fill="#E7A699"/>
<path d="M185.434 59.2436C185.434 59.2436 185.858 49.7922 177.905 50.0046C172.815 50.1108 172.497 54.7834 176.42 60.7303C178.117 63.279 178.223 68.9073 180.344 70.8188C182.889 73.0489 184.904 69.6506 185.752 68.0577C186.918 65.509 185.434 59.2436 185.434 59.2436Z" fill="#EDBDA6"/>
<path d="M181.616 54.8896C178.859 53.2967 175.678 53.6153 177.587 56.8012C179.496 59.987 180.662 60.8365 180.556 64.2348C180.45 67.4206 183.207 67.5268 183.207 67.5268L181.616 54.8896Z" fill="#E7A699"/>
<path d="M236.014 36.0932C235.802 39.1728 235.166 41.1905 234.424 45.7569C234.212 46.8188 234 48.0932 233.788 49.5799C232.197 60.9427 230.076 76.341 229.228 78.6772C227.743 82.5002 219.684 88.6595 215.761 90.9958C211.944 93.2259 202.188 92.8011 198.371 90.571C194.659 88.1286 185.858 82.3941 184.479 78.571C183.525 76.2348 181.404 60.3056 179.814 48.8365C179.602 47.5622 179.496 46.394 179.284 45.3321C178.541 40.8719 177.905 39.0666 177.693 35.987C177.057 26.4294 187.873 12.4117 206.96 12.4117C229.334 12.5179 236.651 26.4294 236.014 36.0932Z" fill="#EDBDA6"/>
<path d="M185.328 28.8719C185.328 28.8719 200.915 24.8365 223.608 26.1108L229.758 21.9693C229.758 21.9693 218.942 15.81 204.945 15.9162C190.842 16.0223 185.328 28.8719 185.328 28.8719Z" fill="#E1D2E3"/>
<path d="M235.166 43.2082C234.848 44.0578 234.53 44.8011 234.318 45.5445L234.424 45.6507C234.212 46.7126 234 47.987 233.788 49.4737C233.363 52.2347 232.939 55.2082 232.515 58.2878L229.334 62.217C230.818 57.7569 231.773 48.5179 232.303 45.4383C230.182 40.7657 229.016 35.7746 228.91 30.571L227.743 22.925L222.653 23.1374C221.911 22.394 210.883 22.8188 201.234 23.5622C189.039 24.5179 185.328 28.8719 185.328 28.8719C184.585 33.4383 183.737 40.4471 181.404 44.4825L181.298 44.6949L181.086 45.0135C181.616 47.8808 181.935 56.4825 183.631 61.2613L181.086 58.2878C180.662 55.102 180.132 51.81 179.708 48.8365C179.602 48.4117 179.602 47.987 179.496 47.6684C179.496 47.6684 178.965 45.9693 178.223 43.4206C177.693 41.6153 176.42 32.164 176.102 30.8896C175.996 30.4648 175.89 30.0401 175.89 29.7215C174.724 23.8808 177.163 2.00466 210.777 4.65953C211.201 4.65953 211.625 4.76572 211.944 4.76572C222.972 6.25245 228.061 11.456 228.061 11.456L231.879 18.1463C238.135 19.102 238.877 22.7126 237.393 29.9339C237.393 30.2524 235.802 41.4029 235.166 43.2082Z" fill="#422129"/>
<path d="M174.936 108.306L175.148 110.323C175.042 110.323 162.953 110.96 157.652 118.394C151.925 126.571 142.912 150.04 145.245 154.819C147.79 160.129 159.136 165.014 159.242 165.014L158.5 166.819C157.97 166.606 146.411 161.615 143.442 155.562C140.367 149.297 150.865 124.553 156.061 117.12C161.787 108.943 174.512 108.306 174.936 108.306Z" fill="#313858"/>
<path d="M149.911 133.792C152.35 127.633 155.213 121.792 157.545 118.394C162.847 110.854 174.936 110.323 175.042 110.323L174.936 109.367V108.306C174.512 108.306 161.787 108.943 155.955 117.226C153.728 120.306 150.653 126.571 148.002 133.155C148.638 133.367 149.274 133.58 149.911 133.792Z" fill="#313858" stroke="#313858" stroke-width="0.5539" stroke-miterlimit="10" stroke-linecap="round" stroke-linejoin="round"/>
<path d="M158.288 163.314H161.151C162.741 163.314 164.014 164.695 163.802 166.288C163.59 167.881 161.999 168.943 160.408 168.412L157.652 167.562C157.439 167.456 157.333 167.244 157.333 167.031L157.758 163.633C157.864 163.527 158.076 163.314 158.288 163.314Z" fill="#313858"/>
<path d="M176.845 108.624L176.102 110.536C176.208 110.536 187.661 114.465 190.63 123.173C193.917 132.624 196.144 157.58 192.538 161.615C188.615 166.075 176.42 167.562 176.314 167.562L176.526 169.58C177.057 169.474 189.569 167.881 194.023 162.89C198.689 157.686 195.401 131.031 192.538 122.429C189.251 112.872 177.269 108.73 176.845 108.624Z" fill="#313858"/>
<path d="M193.811 139.952C193.175 133.368 192.008 126.89 190.63 123.067C187.661 114.359 176.102 110.429 176.102 110.429L176.42 109.474L176.739 108.518C177.163 108.624 189.145 112.766 192.432 122.323C193.705 125.934 194.977 132.73 195.72 139.845C195.189 139.952 194.553 139.952 193.811 139.952Z" fill="#313858" stroke="#313858" stroke-width="0.5539" stroke-miterlimit="10" stroke-linecap="round" stroke-linejoin="round"/>
<path d="M178.753 166.182L175.996 165.332C174.83 165.013 173.451 165.544 172.921 166.606C172.073 168.412 173.345 170.429 175.36 170.429H178.117C178.329 170.429 178.541 170.217 178.541 170.005L178.965 166.606C179.071 166.5 178.965 166.288 178.753 166.182Z" fill="#313858"/>
<path d="M172.815 110.854H175.36C175.466 110.854 175.466 110.854 175.572 110.854L178.011 111.598C178.329 111.704 178.753 111.491 178.859 111.173L179.283 110.323C179.39 110.111 179.39 109.792 179.177 109.58L179.071 109.474C178.541 108.73 178.117 107.881 178.117 106.925L178.011 104.058C178.011 103.739 177.693 103.421 177.375 103.314H176.633H176.526L175.784 103.208C175.466 103.102 175.042 103.314 174.936 103.739L173.982 106.5C173.663 107.35 173.133 108.093 172.391 108.624L172.285 108.73C172.073 108.837 171.967 109.155 171.967 109.474L172.073 110.429C172.179 110.642 172.391 110.854 172.815 110.854Z" fill="#313858"/>
<path opacity="0.3" d="M227.107 52.1285C226.365 55.5268 223.396 58.2878 218.942 58.2878C212.898 58.2878 212.686 54.3586 212.156 52.0223C211.625 49.6861 211.625 47.7746 211.837 47.2436C212.368 45.8631 213.958 45.863 218.73 45.7569C223.502 45.6507 226.153 45.5445 226.895 46.2878C227.637 47.0312 227.849 48.6241 227.107 52.1285Z" fill="white"/>
<path opacity="0.3" d="M186.706 46.2878C187.448 45.5445 190.099 45.6507 194.871 45.7569C199.643 45.863 201.233 45.8631 201.764 47.2436C201.976 47.7746 202.082 49.6861 201.446 52.0223C200.915 54.3586 200.703 58.2878 194.659 58.2878C190.205 58.2878 187.236 55.5268 186.494 52.1285C185.752 48.6241 185.858 47.0312 186.706 46.2878Z" fill="white"/>
<path d="M232.303 45.5445C232.197 44.4825 227.001 44.0578 223.29 43.9516C219.578 43.8454 213.216 43.7392 210.989 44.4825C208.974 45.1197 209.292 45.8631 206.854 45.8631C204.627 45.8631 204.521 45.1197 202.612 44.4825C200.385 43.7392 194.129 43.9516 190.312 43.9516C186.6 44.0578 181.404 44.4825 181.298 45.5445C181.192 46.0754 181.298 46.925 181.51 47.5622C181.722 48.0931 183.525 48.4117 183.843 48.6241C184.585 48.9427 184.373 51.279 185.434 53.7215C186.812 56.9073 190.205 59.456 196.886 58.925C203.036 58.394 202.93 51.9162 203.672 50.1108C204.309 48.6241 203.991 48.0931 206.748 48.0931C209.505 48.0931 209.08 48.6241 209.717 50.1108C210.459 51.9162 210.353 58.394 216.503 58.925C223.184 59.456 226.365 57.0135 227.849 53.7215C228.91 51.1728 228.91 48.8365 229.546 48.5179C229.864 48.4117 231.773 48.0931 231.879 47.456C232.303 46.925 232.303 46.0754 232.303 45.5445ZM201.446 52.0224C200.915 54.3586 200.703 58.2878 194.659 58.2878C190.205 58.2878 187.236 55.5268 186.494 52.1285C185.752 48.6241 185.858 47.0312 186.706 46.2878C187.448 45.5445 190.099 45.6507 194.871 45.7569C199.643 45.8631 201.234 45.8631 201.764 47.2436C201.976 47.7746 202.082 49.6861 201.446 52.0224ZM227.107 52.1285C226.365 55.5268 223.396 58.2878 218.942 58.2878C212.898 58.2878 212.686 54.3586 212.156 52.0224C211.625 49.6861 211.625 47.7746 211.837 47.2436C212.368 45.8631 213.958 45.8631 218.73 45.7569C223.502 45.6507 226.153 45.5445 226.895 46.2878C227.637 47.0312 227.849 48.6241 227.107 52.1285Z" fill="#133A50"/>
<path d="M235.484 102.04C245.452 126.89 230.288 161.19 230.288 161.19" stroke="#313858" stroke-width="2.3686" stroke-miterlimit="10"/>
<path d="M228.486 172.872C232.351 172.872 235.484 169.734 235.484 165.863C235.484 161.992 232.351 158.854 228.486 158.854C224.62 158.854 221.487 161.992 221.487 165.863C221.487 169.734 224.62 172.872 228.486 172.872Z" fill="white" stroke="#313858" stroke-width="2.2804" stroke-miterlimit="10"/>
<path d="M206.854 251.775V329.19" stroke="#C0E7FA" stroke-width="1.8425" stroke-miterlimit="10" stroke-linecap="round" stroke-linejoin="round"/>
</g>
</svg>
