<svg width="390" height="365" viewBox="0 0 390 365" fill="none" xmlns="http://www.w3.org/2000/svg">
<mask id="mask0_116_1230" style="mask-type:alpha" maskUnits="userSpaceOnUse" x="-139" y="0" width="669" height="365">
<path d="M490.826 95.8584C463.892 64.2124 425.4 40.1062 383.409 24.9204C328.48 5.16817 267.932 -0.353956 208.232 0.814185C147.896 1.98233 87.1356 9.73454 30.2987 28.531C-61.6371 59.1151 -168.524 128.991 -130.35 226.796C-116.777 261.628 -87.1925 290.301 -52.1996 310.266C-17.2068 330.23 23.088 342.124 63.9131 350.301C158.924 369.204 259.237 368.779 354.672 348.814C409.6 337.345 466.119 317.487 499.627 277.239C535.15 234.549 537.377 174.761 512.352 127.398C506.414 116.142 499.203 105.628 490.826 95.8584Z" fill="#0075FF"/>
</mask>
<g mask="url(#mask0_116_1230)">
<path d="M490.826 95.8584C463.892 64.2124 425.4 40.1062 383.409 24.9204C328.48 5.16817 267.932 -0.353956 208.232 0.814185C147.896 1.98233 87.1356 9.73454 30.2987 28.531C-61.6371 59.1151 -168.524 128.991 -130.35 226.796C-116.777 261.628 -87.1925 290.301 -52.1996 310.266C-17.2068 330.23 23.088 342.124 63.9131 350.301C158.924 369.204 259.237 368.779 354.672 348.814C409.6 337.345 466.119 317.487 499.627 277.239C535.15 234.549 537.377 174.761 512.352 127.398C506.414 116.142 499.203 105.628 490.826 95.8584Z" fill="#0075FF"/>
</g>
</svg>
