<svg width="333" height="50" viewBox="0 0 333 50" fill="none" xmlns="http://www.w3.org/2000/svg">
<path fill-rule="evenodd" clip-rule="evenodd" d="M221.481 48.794V25.8688H229.006V34.6022H241.131V25.8688H248.618V48.794H241.131V39.9047H229.006V48.794H221.481ZM254.873 48.794V25.8688H262.359V48.794H254.873ZM290.102 48.4042C291.296 48.9239 292.531 49.1839 293.806 49.1839C294.532 49.1839 295.17 49.132 295.716 49.028C296.286 48.95 296.703 48.872 296.964 48.794L298.523 44.4663C298.236 44.4663 297.573 44.3364 296.535 44.0764C295.521 43.7905 294.312 43.1017 292.909 42.01C292.231 41.4902 291.647 41.0223 291.154 40.6064C290.686 40.1906 290.126 39.7357 289.478 39.2418C288.776 38.696 288.125 38.2152 287.528 37.7993C286.929 37.3574 286.227 36.9675 285.423 36.6296C285.813 36.2657 286.332 35.7589 286.983 35.1091C287.409 34.682 287.864 34.2269 288.348 33.7437L289.127 32.9647C289.907 32.1589 290.686 31.3402 291.466 30.5084C292.27 29.6767 292.999 28.9099 293.65 28.2081L295.248 25.8688H285.696C285.174 26.6485 284.538 27.5583 283.786 28.598C283.057 29.6117 282.304 30.6124 281.524 31.6001C280.769 32.5618 280.082 33.3806 279.458 34.0564C279.17 34.3683 278.897 34.5892 278.639 34.7192C278.405 34.8232 278.066 34.8751 277.625 34.8751H276.456V25.8688H268.58L268.97 28.9879V48.794H276.456V40.2556H276.846C278.507 40.2556 279.887 40.5545 280.978 41.1523C282.094 41.7241 283.147 42.5039 284.136 43.4916L285.54 44.8952L286.944 46.2988C287.853 47.1825 288.905 47.8843 290.102 48.4042ZM299.24 48.794L310.663 25.8688H320.8L332.185 48.794H323.802L321.892 44.6223H309.572L307.427 48.794H299.24ZM311.716 39.2421H319.709L315.927 30.9375H315.537L311.716 39.2421Z" fill="#0075FF"/>
<path d="M218.037 48.794L206.652 25.8688H204.135C201.954 25.8688 200.501 28.1225 201.403 30.1086L201.779 30.9373L205.561 39.2418H197.568L198.477 37.2674C199.391 35.2798 197.939 33.0134 195.751 33.0134H192.955L191.921 35.0896L185.092 48.794H193.279L195.424 44.6223H207.744L209.655 48.794H218.037Z" fill="#0075FF"/>
<path fill-rule="evenodd" clip-rule="evenodd" d="M25.3036 49.184C24.2638 49.184 23.1072 49.028 21.8336 48.7161C20.56 48.3782 19.2993 47.5725 18.0517 46.2988L16.4142 44.6613C15.6344 43.8815 14.8806 43.2447 14.1528 42.7509C13.4511 42.257 12.6453 41.8931 11.7356 41.6592C10.8258 41.3993 9.68215 41.2693 8.30456 41.2693H7.99265V48.7941H0.389886V28.9879L0 25.8298H18.0517C19.7152 25.8298 21.0538 26.0378 22.0675 26.4537C23.1072 26.8435 23.9 27.3764 24.4458 28.0522C25.0177 28.702 25.4076 29.4428 25.6155 30.2745C25.8233 31.1063 25.9274 31.951 25.9274 32.8088V33.5496C25.9274 35.1091 25.5246 36.5127 24.7187 37.7603C23.939 38.982 22.6913 39.8527 20.9758 40.3726C21.6257 40.7625 22.2365 41.1653 22.8083 41.5812C23.4061 41.9711 24.082 42.387 24.8357 42.8288C25.6935 43.3227 26.4861 43.6866 27.214 43.9205C27.9677 44.1285 28.5915 44.2584 29.0855 44.3104C29.5794 44.3624 29.8652 44.3884 29.9432 44.3884L28.7736 48.7941C28.4616 48.8721 27.9809 48.95 27.331 49.028C26.7072 49.1321 26.0314 49.184 25.3036 49.184ZM40.7976 49.184C38.1983 49.184 36.2228 48.5732 34.8714 47.3515C33.5458 46.1299 32.8829 44.1545 32.8829 41.4253V25.8688H40.4857V40.7235C40.4857 41.9451 40.7845 42.7639 41.3825 43.1797C41.9802 43.5956 42.721 43.8036 43.6048 43.8036H48.6343C49.466 43.8036 50.1939 43.5956 50.8177 43.1797C51.4415 42.7379 51.7534 41.9191 51.7534 40.7235V25.8688H59.2392V41.4253C59.2392 44.1545 58.5764 46.1299 57.2508 47.3515C55.951 48.5732 53.9887 49.184 51.3635 49.184H40.7976ZM66.361 46.9616C67.6086 48.1833 69.6231 48.7941 72.4042 48.7941H84.8026C87.4019 48.7941 89.2472 48.7161 90.3389 48.5602C91.4306 48.3782 91.9764 48.1833 91.9764 47.9753L91.5866 47.1566V35.421H77.4727V40.8014L82.5802 40.4116L84.1397 40.3726V43.3357C83.4119 43.3617 82.5673 43.3877 81.6055 43.4137H78.3694H75.2114C73.8857 43.4137 73.028 43.1797 72.6381 42.7119C72.2743 42.218 72.0923 41.5292 72.0923 40.6455V33.9784C72.0923 33.0427 72.3001 32.3539 72.7161 31.9121C73.1579 31.4442 73.9898 31.2103 75.2114 31.2103H78.8373C81.6964 31.2103 84.0618 31.2622 85.9332 31.3662C87.8307 31.4442 89.1042 31.5222 89.7541 31.6001L90.9627 26.7266C90.9627 26.5186 90.482 26.3237 89.5202 26.1417C88.5844 25.9338 87.2198 25.8298 85.4264 25.8298H72.4042C69.8828 25.8298 67.9334 26.4796 66.5559 27.7793C65.1784 29.0529 64.4895 31.0933 64.4895 33.9005V41.0354C64.4895 43.7646 65.1133 45.74 66.361 46.9616ZM97.8233 48.7941V28.9879L97.4334 25.8688H104.607L115.602 37.0196L117.123 38.735H117.551V25.8688H125.037V48.7941H118.526L107.22 37.5264L105.699 35.6939H105.309V48.7941H97.8233ZM12.5154 36.0839C13.1652 36.0839 13.789 36.0709 14.3869 36.0449C15.0107 36.0189 15.5695 35.9799 16.0634 35.9279C16.9471 35.8239 17.5449 35.551 17.8568 35.1092C18.1947 34.6413 18.3637 34.0825 18.3637 33.4326V33.0038C18.3637 32.4319 18.1947 31.9901 17.8568 31.6782C17.5449 31.3663 16.9601 31.2103 16.1024 31.2103H7.99273V35.9279C8.64255 35.9539 9.35733 35.9929 10.1371 36.0449C10.9169 36.0709 11.7096 36.0839 12.5154 36.0839Z" fill="#0075FF"/>
<path d="M129.046 48.794L140.431 25.8688H142.948C145.129 25.8688 146.582 28.1225 145.68 30.1086L145.304 30.9373L141.522 39.2418H149.515L148.606 37.2674C147.692 35.2798 149.144 33.0134 151.332 33.0134H154.128L155.162 35.0896L161.991 48.794H153.804L151.659 44.6223H139.339L137.428 48.794H129.046Z" fill="#0075FF"/>
<path d="M140.894 8.21657L139.424 11.4422C138.517 13.4331 139.978 15.6939 142.165 15.6858L157.355 15.63L166.725 41.4252L175.254 41.4252L162.674 8.21657L140.894 8.21657Z" fill="#0075FF"/>
<path d="M180.941 36.5518L185.868 22.9872L204.127 22.9872C205.784 22.9872 207.127 21.6441 207.127 19.9872L207.127 15.8391L188.464 15.8391L180.258 15.8391L177.55 22.9872L172.412 36.5518L170.575 41.4254L179.104 41.4254L180.941 36.5518Z" fill="#0075FF"/>
</svg>
